<?xml version="1.0" encoding="utf-8"?>
<!-- Generator: Adobe Illustrator 24.3.0, SVG Export Plug-In . SVG Version: 6.00 Build 0)  -->
<svg version="1.1" id="Calque_1" xmlns="http://www.w3.org/2000/svg" xmlns:xlink="http://www.w3.org/1999/xlink" x="0px" y="0px"
	 viewBox="0 0 16 16" style="enable-background:new 0 0 16 16;" xml:space="preserve">
<style type="text/css">
	.st0{fill:#7B7D85;}
	.st1{fill:#FFFFFF;}
</style>
<path class="st0" d="M8.8,4.3c0,0,0,0.1,0,0.2H3.5v-2h5.8C8.9,3.1,8.8,3.7,8.8,4.3z M11.1,4.3c0,0.7,0.6,1.4,1.3,1.4c0,0,0,0,0,0
	v3.7c-0.8-1.1-1.6-2.2-2.2-3.4h0.2V4.5H9.8c0,0,0-0.1,0-0.2c0-0.7,0.3-1.4,0.7-1.8h2V3C11.8,3,11.2,3.6,11.1,4.3
	C11.2,4.3,11.1,4.3,11.1,4.3z M10.3,8H3.5V6h5.7c0.1,0.1,0.1,0.3,0.2,0.4C9.7,7,10,7.5,10.3,8z M12.5,11.1v0.4L8,14l-4.5-2.5v-2h2v1
	L8,12l2.5-1.5V8.3c0.6,0.9,1.2,1.7,1.2,1.7L12.5,11.1z"/>
<path class="st1" d="M12.5,1.6c-0.8,0-1.5,0.3-2,0.9C10,3,9.8,3.7,9.8,4.3c0,0,0,0.1,0,0.2C9.9,5,10,5.5,10.3,6
	c0.6,1.2,1.4,2.3,2.2,3.4c0,0,2.7-3.6,2.7-5.1C15.2,2.8,14,1.6,12.5,1.6C12.5,1.6,12.5,1.6,12.5,1.6z M12.5,5.7
	c-0.8,0-1.4-0.6-1.4-1.3S11.7,3,12.5,3c0.8,0,1.4,0.6,1.4,1.3c0,0,0,0,0,0C13.9,5.1,13.3,5.7,12.5,5.7C12.5,5.7,12.5,5.7,12.5,5.7z"
	/>
<path class="st0" d="M12.5,1.6c-0.8,0-1.5,0.3-2,0.9C10,3,9.8,3.7,9.8,4.3c0,0,0,0.1,0,0.2C9.9,5,10,5.5,10.3,6
	c0.6,1.2,1.4,2.3,2.2,3.4c0,0,2.7-3.6,2.7-5.1C15.2,2.8,14,1.6,12.5,1.6C12.5,1.6,12.5,1.6,12.5,1.6z M12.5,5.7
	c-0.8,0-1.4-0.6-1.4-1.3S11.7,3,12.5,3c0.8,0,1.4,0.6,1.4,1.3c0,0,0,0,0,0C13.9,5.1,13.3,5.7,12.5,5.7C12.5,5.7,12.5,5.7,12.5,5.7z"
	/>
</svg>
