<?xml version="1.0" encoding="utf-8"?>
<!-- Generator: Adobe Illustrator 24.3.0, SVG Export Plug-In . SVG Version: 6.00 Build 0)  -->
<svg version="1.1" id="Layer_1" xmlns="http://www.w3.org/2000/svg" xmlns:xlink="http://www.w3.org/1999/xlink" x="0px" y="0px"
	 viewBox="0 0 16 16" style="enable-background:new 0 0 16 16;" xml:space="preserve">
<style type="text/css">
	.st0{fill:#7B7D85;}
</style>
<path class="st0" d="M8,1.7c-0.3,0-0.6,0.1-0.8,0.3L5.9,3.3L7.6,5C7.7,4.9,7.9,4.9,8,4.9c0.6,0,1,0.4,1,1C9,6,9,6.2,8.9,6.3l1.2,1.2
	c0.1-0.1,0.3-0.1,0.4-0.1c0.6,0,1,0.4,1,1s-0.4,1-1,1c-0.6,0-1-0.4-1.1-0.9c0-0.2,0-0.4,0.1-0.5L8.4,6.9H8.4v3.2
	c0.5,0.2,0.8,0.8,0.6,1.3c-0.2,0.5-0.8,0.8-1.3,0.6s-0.8-0.8-0.6-1.3c0.1-0.3,0.3-0.5,0.6-0.6V6.9C7.2,6.7,6.9,6.3,7,5.9
	c0-0.1,0-0.3,0.1-0.4L5.4,3.9L1.8,7.5C1.4,7.9,1.4,8.6,1.8,9l5.4,5.4c0.4,0.4,1.1,0.4,1.6,0L14.2,9c0.4-0.4,0.4-1.1,0-1.6L8.8,2.1
	C8.6,1.9,8.3,1.7,8,1.7"/>
</svg>
