<?xml version="1.0" encoding="utf-8"?>
<!-- Generator: Adobe Illustrator 24.3.0, SVG Export Plug-In . SVG Version: 6.00 Build 0)  -->
<svg version="1.1" id="Layer_1" xmlns="http://www.w3.org/2000/svg" xmlns:xlink="http://www.w3.org/1999/xlink" x="0px" y="0px"
	 viewBox="0 0 16 16" style="enable-background:new 0 0 16 16;" xml:space="preserve">
<style type="text/css">
	.st0{fill-rule:evenodd;clip-rule:evenodd;fill:#7B7D85;}
</style>
<path class="st0" d="M4,2h5.1c0.3,0,0.5,0.1,0.7,0.3C10.5,3,12,4.5,12.7,5.2C12.9,5.4,13,5.6,13,5.9V13c0,0.6-0.4,1-1,1H4
	c-0.6,0-1-0.4-1-1V3C3,2.4,3.4,2,4,2z M8.2,4.5c0-0.1-0.2-0.2-0.3-0.1c-0.1,0-0.1,0.1-0.1,0.1l-0.7,2c0,0.1-0.1,0.1-0.2,0.1l-2.1,0
	C4.7,6.8,4.6,6.8,4.6,7c0,0.1,0,0.1,0.1,0.2l1.7,1.3c0.1,0.1,0.1,0.1,0.1,0.2l-0.6,2.1c0,0.1,0,0.2,0.1,0.2c0.1,0,0.1,0,0.2,0
	l1.8-1.2c0.1,0,0.2,0,0.2,0l1.8,1.2c0.1,0.1,0.2,0,0.3,0c0-0.1,0-0.1,0-0.2L9.6,8.6c0-0.1,0-0.2,0.1-0.2l1.7-1.3
	c0.1-0.1,0.1-0.2,0-0.3c0,0-0.1-0.1-0.2-0.1l-2.1,0C9,6.7,8.9,6.7,8.9,6.6L8.2,4.5L8.2,4.5z"/>
</svg>
