<?xml version="1.0" encoding="utf-8"?>
<!-- Generator: Adobe Illustrator 24.3.0, SVG Export Plug-In . SVG Version: 6.00 Build 0)  -->
<svg version="1.1" id="Layer_1" xmlns="http://www.w3.org/2000/svg" xmlns:xlink="http://www.w3.org/1999/xlink" x="0px" y="0px"
	 viewBox="0 0 16 16" style="enable-background:new 0 0 16 16;" xml:space="preserve">
<style type="text/css">
	.st0{fill-rule:evenodd;clip-rule:evenodd;fill:#7B7D85;}
</style>
<path class="st0" d="M3.3,13.7C3.1,13.5,3,13.3,3,13V3c0-0.6,0.4-1,1-1h5.1c0.3,0,0.5,0.1,0.7,0.3C10.5,3,12,4.5,12.7,5.2
	C12.9,5.4,13,5.6,13,5.9V13c0,0.6-0.4,1-1,1H4C3.7,14,3.5,13.9,3.3,13.7z M4.5,10.4V3.5H9L11.5,6v6.5h-7V10.4L4.5,10.4z M8,4.5H5.5
	V7C6.9,7,8,5.9,8,4.5z M5.5,9.4l1.8-1.8l1.8,3l1.4-0.7v1.7h-5V9.4z"/>
</svg>
