<?xml version="1.0" encoding="utf-8"?>
<!-- Generator: Adobe Illustrator 24.3.0, SVG Export Plug-In . SVG Version: 6.00 Build 0)  -->
<svg version="1.1" id="Layer_1" xmlns="http://www.w3.org/2000/svg" xmlns:xlink="http://www.w3.org/1999/xlink" x="0px" y="0px"
	 viewBox="0 0 16 16" style="enable-background:new 0 0 16 16;" xml:space="preserve">
<style type="text/css">
	.st0{fill:#7B7D85;}
</style>
<path class="st0" d="M4,12.9l2.9-3.8l2.4,2.7l0.9-1l1.8,2H4 M6.2,3.5c1,0,1.8,0.8,1.8,1.8S7.2,7,6.2,7S4.5,6.2,4.5,5.2
	S5.3,3.5,6.2,3.5 M9.1,2H4C3.4,2,3,2.4,3,3v10c0,0.6,0.4,1,1,1h8c0.6,0,1-0.4,1-1V5.9c0-0.3-0.1-0.5-0.3-0.7C12,4.5,10.5,3,9.8,2.3
	C9.6,2.1,9.4,2,9.1,2"/>
</svg>
