<?xml version="1.0" encoding="utf-8"?>
<!-- Generator: Adobe Illustrator 24.3.0, SVG Export Plug-In . SVG Version: 6.00 Build 0)  -->
<svg version="1.1" id="Layer_1" xmlns="http://www.w3.org/2000/svg" xmlns:xlink="http://www.w3.org/1999/xlink" x="0px" y="0px"
	 viewBox="0 0 16 16" style="enable-background:new 0 0 16 16;" xml:space="preserve">
<style type="text/css">
	.st0{fill-rule:evenodd;clip-rule:evenodd;fill:#7B7D85;}
	.st1{fill-rule:evenodd;clip-rule:evenodd;fill:#FFFFFF;filter:url(#Adobe_OpacityMaskFilter);}
	.st2{mask:url(#a_1_);fill:#7B7D85;}
	.st3{fill:#7B7D85;}
</style>
<path class="st0" d="M6,2h3.1c0.3,0,0.5,0.1,0.7,0.3C10.5,3,12,4.5,12.7,5.2C12.9,5.4,13,5.6,13,5.9V13c0,0.6-0.4,1-1,1H4
	c-0.6,0-1-0.4-1-1V3c0-0.6,0.4-1,1-1C4,2,6,2,6,2z M10,8c0.5,0,1.1,0.1,1.5,0.4v1.3c-0.7-0.8-2-0.9-2.8-0.2c-0.8,0.7-0.9,2-0.2,2.8
	c0.1,0.1,0.1,0.1,0.2,0.2H7.4c-0.8-1.4-0.3-3.3,1.1-4.1C9,8.1,9.5,8,10,8z M11.3,12.5c0.1-0.1,0.1-0.1,0.2-0.2v0.2H11.3z M6,8
	C5.5,8,5,7.9,4.5,7.6V3.5h4.1c0.8,1.4,0.3,3.3-1.1,4.1C7,7.9,6.5,8,6,8z"/>
<defs>
	<filter id="Adobe_OpacityMaskFilter" filterUnits="userSpaceOnUse" x="1.5" y="0.5" width="13" height="15">
		<feColorMatrix  type="matrix" values="1 0 0 0 0  0 1 0 0 0  0 0 1 0 0  0 0 0 1 0"/>
	</filter>
</defs>
<mask maskUnits="userSpaceOnUse" x="1.5" y="0.5" width="13" height="15" id="a_1_">
	<path class="st1" d="M6,2h3.1c0.3,0,0.5,0.1,0.7,0.3C10.5,3,12,4.5,12.7,5.2C12.9,5.4,13,5.6,13,5.9V13c0,0.6-0.4,1-1,1H4
		c-0.6,0-1-0.4-1-1V3c0-0.6,0.4-1,1-1C4,2,6,2,6,2z M10,8c0.5,0,1.1,0.1,1.5,0.4v1.3c-0.7-0.8-2-0.9-2.8-0.2c-0.8,0.7-0.9,2-0.2,2.8
		c0.1,0.1,0.1,0.1,0.2,0.2H7.4c-0.8-1.4-0.3-3.3,1.1-4.1C9,8.1,9.5,8,10,8z M11.3,12.5c0.1-0.1,0.1-0.1,0.2-0.2v0.2H11.3z M6,8
		C5.5,8,5,7.9,4.5,7.6V3.5h4.1c0.8,1.4,0.3,3.3-1.1,4.1C7,7.9,6.5,8,6,8z"/>
</mask>
<path class="st2" d="M9.1,2v1.5h0L9.1,2z M6,2V0.5l0,3L6,2L6,2z M9.5,2.1L8.9,3.5L9.5,2.1z M9.8,2.3l-1.1,1l0,0L9.8,2.3z M12.7,5.2
	l1.1-1.1l0,0l0,0L12.7,5.2z M13,5.9h1.5v0L13,5.9z M3.3,13.7l1.1-1.1C4.4,12.6,3.3,13.7,3.3,13.7z M3.3,2.3L2.2,1.2L3.3,2.3z M6,2
	l0,1.5v-3L6,2L6,2z M6,2V0.5v3V2z M6,2v1.5v-3V2z M11.5,8.4H13V7.5l-0.7-0.4L11.5,8.4L11.5,8.4z M11.5,9.7l-1.1,1l2.6,3v-4H11.5z
	 M8.7,12.5V14h4l-3-2.6L8.7,12.5z M7.4,12.5l-1.3,0.8L6.5,14h0.9V12.5z M11.5,12.3H13v-4l-2.6,3L11.5,12.3z M11.3,12.5l-1-1.1
	l-3,2.6h4V12.5z M11.5,12.5V14H13v-1.5H11.5z M4.5,7.6H3v0.9l0.7,0.4L4.5,7.6L4.5,7.6z M4.5,3.5V2H3v1.5H4.5z M8.6,3.5l1.3-0.8
	L9.5,2H8.6V3.5z M9.1,0.5H6v3h3.1V0.5z M10.1,0.7c-0.3-0.1-0.6-0.2-1-0.2l0,3c-0.1,0-0.2,0-0.2,0L10.1,0.7L10.1,0.7z M10.9,1.3
	c-0.2-0.2-0.5-0.4-0.8-0.6L8.9,3.5c-0.1,0-0.1-0.1-0.2-0.1C8.7,3.3,10.9,1.3,10.9,1.3z M13.7,4.1c-0.7-0.7-2.2-2.2-2.9-2.9L8.7,3.3
	c0.7,0.7,2.2,2.3,2.9,3L13.7,4.1L13.7,4.1z M14.5,5.9c0-0.7-0.3-1.3-0.7-1.8l-2.1,2.1c-0.1-0.1-0.1-0.2-0.1-0.3
	C11.5,5.9,14.5,5.9,14.5,5.9z M14.5,13V5.9h-3V13H14.5z M13.8,14.8c0.5-0.5,0.7-1.1,0.7-1.8h-3c0-0.1,0.1-0.3,0.1-0.4L13.8,14.8z
	 M12,15.5c0.7,0,1.3-0.3,1.8-0.7l-2.1-2.1c0.1-0.1,0.2-0.1,0.4-0.1V15.5z M4,15.5h8v-3H4V15.5z M2.2,14.8c0.5,0.5,1.1,0.7,1.8,0.7
	v-3c0.1,0,0.3,0.1,0.4,0.1C4.4,12.6,2.2,14.8,2.2,14.8z M1.5,13c0,0.7,0.3,1.3,0.7,1.8l2.1-2.1c0.1,0.1,0.1,0.2,0.1,0.4H1.5z M1.5,3
	v10h3V3H1.5z M2.2,1.2C1.8,1.7,1.5,2.3,1.5,3h3c0,0.1-0.1,0.3-0.1,0.4C4.4,3.4,2.2,1.2,2.2,1.2z M4,0.5c-0.7,0-1.3,0.3-1.8,0.7
	l2.1,2.1C4.3,3.4,4.1,3.5,4,3.5V0.5z M6,0.5H4v3h2V0.5z M6,0.5l0,3L6,0.5z M6,3.5L6,3.5l0-3h0V3.5z M6,0.5l0,3L6,0.5z M12.3,7.1
	c-0.7-0.4-1.5-0.6-2.3-0.6v3c0.3,0,0.5,0.1,0.7,0.2C10.7,9.7,12.3,7.1,12.3,7.1z M13,9.7V8.4h-3v1.3H13z M10,10.5
	c0.1,0,0.3,0.1,0.4,0.2l2.2-2C12,7.9,11,7.5,10,7.5V10.5z M9.5,11c0-0.3,0.2-0.5,0.5-0.5v-3c-1.9,0-3.5,1.6-3.5,3.5H9.5z M9.7,11.4
	c-0.1-0.1-0.2-0.2-0.2-0.4h-3c0,1,0.5,2,1.2,2.6L9.7,11.4z M7.4,14h1.3v-3H7.4L7.4,14L7.4,14z M5.5,11c0,0.8,0.2,1.6,0.6,2.3
	l2.6-1.5c-0.1-0.2-0.2-0.5-0.2-0.7L5.5,11L5.5,11z M10,6.5c-2.5,0-4.5,2-4.5,4.5h3c0-0.8,0.7-1.5,1.5-1.5V6.5z M10.4,11.3
	C10.4,11.3,10.3,11.4,10.4,11.3l1.9,2.3c0.1-0.1,0.2-0.2,0.3-0.3L10.4,11.3z M13,12.5v-0.2h-3v0.2H13z M11.3,14h0.2v-3h-0.2V14z
	 M3.7,8.9C4.4,9.3,5.2,9.5,6,9.5v-3c-0.3,0-0.5-0.1-0.7-0.2L3.7,8.9L3.7,8.9z M3,3.5v4.1h3V3.5H3z M8.6,2H4.5v3h4.1V2z M10.5,5
	c0-0.8-0.2-1.6-0.6-2.3L7.3,4.2C7.4,4.5,7.5,4.7,7.5,5L10.5,5L10.5,5z M6,9.5c2.5,0,4.5-2,4.5-4.5h-3c0,0.8-0.7,1.5-1.5,1.5V9.5z"/>
<path class="st3" d="M10,13.5l2-3V13L10,13.5z"/>
</svg>
