<?xml version="1.0" encoding="utf-8"?>
<!-- Generator: Adobe Illustrator 24.3.0, SVG Export Plug-In . SVG Version: 6.00 Build 0)  -->
<svg version="1.1" id="Layer_1" xmlns="http://www.w3.org/2000/svg" xmlns:xlink="http://www.w3.org/1999/xlink" x="0px" y="0px"
	 viewBox="0 0 16 16" style="enable-background:new 0 0 16 16;" xml:space="preserve">
<style type="text/css">
	.st0{fill:#7B7D85;}
</style>
<path class="st0" d="M6,10.6c0.2,0,0.3-0.1,0.5-0.2c0.1-0.2,0.2-0.4,0.2-0.6V6.3h1.1v3.6c0,0.3-0.1,0.6-0.2,0.9
	c-0.1,0.3-0.3,0.5-0.6,0.6c-0.3,0.1-0.6,0.2-0.9,0.2c-0.3,0-0.6-0.1-0.9-0.2c-0.2-0.1-0.5-0.3-0.6-0.5l0.8-0.6
	C5.4,10.5,5.7,10.6,6,10.6 M10.7,6.2c0.2,0,0.4,0,0.6,0.1c0.4,0.1,0.8,0.3,1.1,0.5L12,7.6c-0.2-0.1-0.4-0.2-0.7-0.3
	c-0.2-0.1-0.4-0.1-0.7-0.1c-0.2,0-0.5,0-0.7,0.2C9.9,7.4,9.8,7.6,9.8,7.7c0,0.1,0,0.3,0.1,0.4c0.1,0.1,0.2,0.2,0.3,0.2
	c0.1,0,0.3,0.1,0.6,0.1h0.1c0.3,0.1,0.6,0.1,0.9,0.2c0.2,0.1,0.4,0.3,0.6,0.4c0.2,0.3,0.3,0.6,0.2,0.9c0,0.3-0.1,0.6-0.2,0.9
	c-0.2,0.2-0.4,0.4-0.7,0.6c-0.4,0.1-0.7,0.2-1.1,0.2c-0.3,0-0.5,0-0.8-0.1c-0.2,0-0.5-0.1-0.7-0.2c-0.2-0.1-0.4-0.2-0.6-0.4L9,10.2
	c0.2,0.2,0.5,0.3,0.7,0.4c0.3,0.1,0.6,0.1,0.8,0.1c0.3,0,0.5,0,0.8-0.2c0.2-0.1,0.3-0.4,0.2-0.6c0-0.1-0.1-0.1-0.1-0.2
	c-0.1-0.1-0.2-0.1-0.3-0.2l-0.5-0.1h-0.1c-0.3,0-0.6-0.1-0.9-0.2C9.3,9.1,9.1,8.9,9,8.7C8.8,8.5,8.7,8.1,8.7,7.8
	c0-0.3,0.1-0.6,0.2-0.9c0.2-0.2,0.4-0.4,0.7-0.6C10,6.2,10.4,6.2,10.7,6.2z M13,3H2.9C2.7,3,2.4,3.1,2.3,3.3C2.1,3.4,2,3.7,2,3.9V12
	c0,0.3,0.1,0.5,0.2,0.7C2.4,12.9,2.7,13,2.9,13H13c0.3,0,0.5-0.1,0.7-0.3c0.2-0.2,0.3-0.4,0.3-0.7V3.9c0-0.2-0.1-0.5-0.3-0.7
	C13.5,3.1,13.3,3,13,3"/>
</svg>
