<?xml version="1.0" encoding="utf-8"?>
<!-- Generator: Adobe Illustrator 24.3.0, SVG Export Plug-In . SVG Version: 6.00 Build 0)  -->
<svg version="1.1" id="Layer_1" xmlns="http://www.w3.org/2000/svg" xmlns:xlink="http://www.w3.org/1999/xlink" x="0px" y="0px"
	 viewBox="0 0 16 16" style="enable-background:new 0 0 16 16;" xml:space="preserve">
<style type="text/css">
	.st0{fill:#7B7D85;}
</style>
<path class="st0" d="M12,2c-0.3,0-0.7,0.1-1,0.2c-0.3,0.1-0.6,0.3-0.8,0.6c-0.4,0.4-0.7,1-0.7,1.7c0,0,0,0.1,0,0.1
	C9.6,5.1,9.7,5.5,10,5.9C10.6,7,11.2,8,12,9c0,0,2.5-3.2,2.5-4.6c0-0.6-0.3-1.3-0.7-1.7C13.3,2.3,12.7,2,12,2z M12,5.7
	c-0.2,0-0.5-0.1-0.7-0.2c-0.2-0.1-0.4-0.3-0.5-0.5c-0.2-0.5-0.1-1,0.3-1.3c0.4-0.4,0.9-0.5,1.4-0.3c0.2,0.1,0.4,0.2,0.6,0.5
	c0.2,0.3,0.3,0.8,0.1,1.1c-0.1,0.3-0.4,0.5-0.7,0.7C12.3,5.6,12.2,5.7,12,5.7z"/>
<path class="st0" d="M9.8,7.8c0,0.1,0,0.2,0.1,0.3L10,8.2C9.9,8.1,9.8,7.9,9.8,7.8z M6,10.6c0.2,0,0.3-0.1,0.5-0.2
	c0.1-0.2,0.2-0.4,0.2-0.6V6.3h1.1v3.6c0,0.3-0.1,0.6-0.2,0.9c-0.1,0.3-0.3,0.5-0.6,0.6c-0.3,0.1-0.6,0.2-0.9,0.2
	c-0.3,0-0.6-0.1-0.9-0.2c-0.2-0.1-0.5-0.3-0.6-0.5l0.8-0.6C5.4,10.5,5.7,10.6,6,10.6 M9,3l-6,0c-0.2,0-0.5,0.1-0.7,0.3
	C2.1,3.5,2,3.7,2,4v8.1c0,0.2,0.1,0.5,0.3,0.7C2.4,12.9,2.7,13,2.9,13H13c0.3,0,0.5-0.1,0.7-0.3c0.2-0.2,0.3-0.4,0.3-0.7V7.9
	c-0.4,0.7-0.9,1.3-1.4,1.9l-0.1,0.1V10c0,0.3-0.1,0.6-0.2,0.9c-0.2,0.2-0.4,0.4-0.7,0.6c-0.4,0.1-0.7,0.2-1.1,0.2
	c-0.3,0-0.5,0-0.8-0.1c-0.2,0-0.5-0.1-0.7-0.2c-0.2-0.1-0.4-0.2-0.6-0.4L9,10.1c0.2,0.2,0.5,0.3,0.7,0.4c0.3,0.1,0.6,0.1,0.8,0.1
	c0.3,0,0.5,0,0.8-0.2c0.1-0.1,0.2-0.1,0.2-0.2l-0.3-0.4l-0.3-0.4l-0.3-0.1h-0.1c-0.3,0-0.6-0.1-0.9-0.2C9.3,9.1,9.1,8.9,9,8.7
	C8.8,8.5,8.7,8.1,8.7,7.8c0-0.3,0.1-0.6,0.2-0.9C9,6.8,9.1,6.8,9.1,6.7c0,0,0-0.1-0.1-0.1C8.8,6.1,8.6,5.5,8.5,5c0-0.1,0-0.2,0-0.3
	C8.5,4.1,8.7,3.5,9,3"/>
</svg>
