<?xml version="1.0" encoding="utf-8"?>
<!-- Generator: Adobe Illustrator 24.3.0, SVG Export Plug-In . SVG Version: 6.00 Build 0)  -->
<svg version="1.1" id="Calque_1" xmlns="http://www.w3.org/2000/svg" xmlns:xlink="http://www.w3.org/1999/xlink" x="0px" y="0px"
	 viewBox="0 0 16 16" style="enable-background:new 0 0 16 16;" xml:space="preserve">
<style type="text/css">
	.st0{fill:#7B7D85;}
</style>
<path class="st0" d="M3,6v0.5c0,0.6-0.4,1-1,1H1.5V9H2c0.6,0,1,0.4,1,1v0.5c0,1.6,1.3,3,2.9,3c0,0,0.1,0,0.1,0h1V12H6
	c-0.8,0-1.5-0.6-1.5-1.4c0,0,0,0,0-0.1V6c0-0.8,0.6-1.5,1.4-1.5c0,0,0,0,0.1,0h1V3H6C4.4,3,3,4.3,3,5.9C3,5.9,3,6,3,6z M14,7.5
	c-0.6,0-1-0.4-1-1V6c0-1.6-1.3-3-2.9-3c0,0-0.1,0-0.1,0H9v1.5h1c0.8,0,1.5,0.6,1.5,1.4c0,0,0,0,0,0.1v4.5c0,0.8-0.6,1.5-1.4,1.5
	c0,0,0,0-0.1,0H9v1.5h1c1.6,0,3-1.3,3-2.9c0,0,0-0.1,0-0.1V10c0-0.6,0.4-1,1-1h0.5V7.5H14z"/>
<circle class="st0" cx="8" cy="8.2" r="1"/>
</svg>
