<?xml version="1.0" encoding="utf-8"?>
<!-- Generator: Adobe Illustrator 24.3.0, SVG Export Plug-In . SVG Version: 6.00 Build 0)  -->
<svg version="1.1" id="Layer_1" xmlns="http://www.w3.org/2000/svg" xmlns:xlink="http://www.w3.org/1999/xlink" x="0px" y="0px"
	 viewBox="0 0 16 16" style="enable-background:new 0 0 16 16;" xml:space="preserve">
<style type="text/css">
	.st0{fill:#7B7D85;}
	.st1{fill-rule:evenodd;clip-rule:evenodd;fill:#7B7D85;}
</style>
<path class="st0" d="M5,6.5v-1c-0.3,0-0.5-0.2-0.5-0.4c0,0,0,0,0-0.1c0-0.3,0.1-0.4,0.3-0.7C5.3,4,5.5,3.5,5.5,3h-1
	c0,0.3-0.1,0.4-0.3,0.7C3.7,4,3.5,4.5,3.5,5C3.5,5.8,4.1,6.5,5,6.5C4.9,6.5,5,6.5,5,6.5z M10,6.5v-1c-0.3,0-0.5-0.2-0.5-0.4
	c0,0,0,0,0-0.1c0-0.3,0.1-0.4,0.4-0.7C10.3,4,10.5,3.5,10.5,3h-1c0,0.3-0.1,0.4-0.4,0.7C8.7,4,8.5,4.5,8.5,5C8.5,5.8,9.1,6.5,10,6.5
	C9.9,6.5,10,6.5,10,6.5z M6,5c0,0.8,0.6,1.5,1.4,1.5c0,0,0.1,0,0.1,0v-1C7.2,5.5,7,5.3,7,5.1C7,5,7,5,7,5c0-0.3,0.1-0.4,0.3-0.7
	C7.8,4,8,3.5,8,3c0-0.8-0.6-1.5-1.4-1.5c0,0-0.1,0-0.1,0v1C6.8,2.5,7,2.7,7,2.9C7,3,7,3,7,3c0,0.3-0.1,0.4-0.3,0.7C6.2,4,6,4.5,6,5z
	"/>
<path class="st1" d="M2.5,7h9.4v0c1.2,0,2.2,1,2.2,2.2c0,1.2-1,2.2-2.2,2.2H11c-1.1,2.2-3.8,3.1-6,2c-1.5-0.8-2.5-2.3-2.5-4V7z
	 M11.4,10.5h0.5v0c0.7,0,1.2-0.6,1.2-1.2S12.6,8,11.9,8h-0.5V10.5z M4,9.6v0.9L6,12v-1.2L5,10l1-0.8V8L4,9.6z M8,8v1.2L9,10l-1,0.8
	V12l2-1.6V9.6L8,8z"/>
</svg>
