<?xml version="1.0" encoding="utf-8"?>
<!-- Generator: Adobe Illustrator 24.3.0, SVG Export Plug-In . SVG Version: 6.00 Build 0)  -->
<svg version="1.1" id="Layer_1" xmlns="http://www.w3.org/2000/svg" xmlns:xlink="http://www.w3.org/1999/xlink" x="0px" y="0px"
	 viewBox="0 0 16 16" style="enable-background:new 0 0 16 16;" xml:space="preserve">
<style type="text/css">
	.st0{fill-rule:evenodd;clip-rule:evenodd;fill:#7B7D85;}
</style>
<path class="st0" d="M2,3C1.4,3,1,3.4,1,4v8c0,0.6,0.4,1,1,1h12c0.6,0,1-0.4,1-1V4c0-0.6-0.4-1-1-1H2z M3,5v6h1.3V7.5l0.8,2.3h0.7
	l0.9-2.3V11H8V5H6.6L5.5,7.7L4.5,5H3z M9,8l2.5,3L14,8h-2V5h-1v3H9z"/>
</svg>
