<?xml version="1.0" encoding="utf-8"?>
<!-- Generator: Adobe Illustrator 24.3.0, SVG Export Plug-In . SVG Version: 6.00 Build 0)  -->
<svg version="1.1" id="Layer_1" xmlns="http://www.w3.org/2000/svg" xmlns:xlink="http://www.w3.org/1999/xlink" x="0px" y="0px"
	 viewBox="0 0 16 16" style="enable-background:new 0 0 16 16;" xml:space="preserve">
<style type="text/css">
	.st0{fill-rule:evenodd;clip-rule:evenodd;fill:#7B7D85;}
</style>
<path class="st0" d="M2,3C1.4,3,1,3.4,1,4v8c0,0.6,0.4,1,1,1h12c0.6,0,1-0.4,1-1V4c0-0.6-0.4-1-1-1H2z M3,11V5h1.5l1,2.7L6.6,5H8v6
	H6.7V7.5L5.8,9.8H5.1L4.3,7.5V11H3z M8.8,11h1.4l0.7-1.5l0.7,1.5H13l-1.4-3L13,5h-1.4l-0.7,1.5L10.2,5H8.8l1.4,3L8.8,11z"/>
</svg>
