<?xml version="1.0" encoding="utf-8"?>
<!-- Generator: Adobe Illustrator 24.3.0, SVG Export Plug-In . SVG Version: 6.00 Build 0)  -->
<svg version="1.1" id="Layer_1" xmlns="http://www.w3.org/2000/svg" xmlns:xlink="http://www.w3.org/1999/xlink" x="0px" y="0px"
	 viewBox="0 0 16 16" style="enable-background:new 0 0 16 16;" xml:space="preserve">
<style type="text/css">
	.st0{fill-rule:evenodd;clip-rule:evenodd;fill:#7B7D85;}
</style>
<path class="st0" d="M8.4,3.2C8.1,3.4,7.8,3.6,7.5,3.6C6.8,3.6,6.2,3,6.2,2.3s0.6-1.2,1.3-1.2c0.7,0,1.2,0.5,1.3,1.1
	c0.8,0.4,1.3,1,1.7,1.6c0.5,0.8,0.7,1.7,0.9,2.3c0.4,1.8,0,4.1-0.3,5.2c-0.1,0.3-0.3,0.4-0.6,0.3s-0.4-0.3-0.3-0.6
	c0.3-1.1,0.6-3.2,0.3-4.7C10.1,5.8,9.9,5,9.5,4.3C9.2,3.8,8.9,3.4,8.4,3.2z M2.1,4.4c1-0.9,2.5-1,3.6-0.6C6,3.9,6.1,4.1,6,4.4
	C5.9,4.7,5.7,4.8,5.4,4.7c-0.9-0.3-2-0.2-2.7,0.4C2.4,5.5,2,6.2,2.6,7c0.2,0.2,0.1,0.5-0.1,0.7C2.2,7.8,1.9,7.8,1.7,7.5c0,0,0,0,0,0
	C1,6.6,1.2,5.2,2.1,4.4z M11.7,3.8c-0.3,0-0.5,0.2-0.5,0.5s0.2,0.5,0.5,0.5c0.2,0,0.5,0,0.9,0.2c0.3,0.1,0.6,0.3,0.8,0.6
	c0.5,1,0,2.4-1.3,3.7c-0.2,0.2-0.2,0.5,0,0.7c0.2,0.2,0.5,0.2,0.7,0c1.4-1.4,2.2-3.2,1.4-4.8c-0.3-0.6-0.8-1-1.3-1.1
	C12.5,3.9,12.1,3.8,11.7,3.8z M8.7,5.1C9,5,9.2,4.8,9.1,4.5C9.1,4.2,8.8,4.1,8.5,4.1C7.3,4.4,5.1,5.4,3.6,7c-1,1-1.6,2.1-1.8,3.1
	c-0.2,0.7-0.2,1.4-0.1,2.1C1.3,12.4,1,12.8,1,13.3c0,0.7,0.6,1.2,1.3,1.2s1.3-0.6,1.3-1.2c0-0.5-0.3-1-0.8-1.2
	c-0.1-0.6-0.1-1.2,0-1.8c0.2-0.8,0.7-1.7,1.6-2.6C5.7,6.3,7.7,5.3,8.7,5.1z M4.4,9.2C4.3,9,4,9,3.7,9.1C3.5,9.3,3.5,9.6,3.7,9.8
	c0.5,0.7,2,2.2,4.9,3c1.5,0.4,2.8,0.3,3.8,0c0.3-0.1,0.6-0.2,0.9-0.3c0.2,0.2,0.5,0.3,0.8,0.3c0.7,0,1.3-0.6,1.3-1.2
	c0-0.7-0.6-1.2-1.3-1.2c-0.7,0-1.3,0.6-1.3,1.2c0,0,0,0.1,0,0.1c-0.2,0.1-0.4,0.2-0.7,0.2c-0.8,0.2-1.9,0.3-3.2,0
	C6.2,11.1,4.9,9.8,4.4,9.2L4.4,9.2z M4.9,12c0.3-0.1,0.5,0.1,0.6,0.4c0,0,0,0,0,0c0.2,0.7,0.8,1.4,1.6,1.5c0.7,0.1,1.2-0.2,1.6-0.6
	c0.2-0.2,0.5-0.1,0.7,0.1c0.2,0.2,0.2,0.5,0,0.7C8.8,14.5,8,15,6.9,14.9c-1.3-0.2-2.2-1.3-2.4-2.3C4.4,12.3,4.6,12.1,4.9,12z
	 M7.6,9.5c0.6,0,1-0.4,1-1s-0.4-1-1-1s-1,0.4-1,1S7.1,9.5,7.6,9.5z"/>
</svg>
