<?xml version="1.0" encoding="utf-8"?>
<!-- Generator: Adobe Illustrator 24.3.0, SVG Export Plug-In . SVG Version: 6.00 Build 0)  -->
<svg version="1.1" id="Layer_1" xmlns="http://www.w3.org/2000/svg" xmlns:xlink="http://www.w3.org/1999/xlink" x="0px" y="0px"
	 viewBox="0 0 16 16" style="enable-background:new 0 0 16 16;" xml:space="preserve">
<style type="text/css">
	.st0{fill:#7B7D85;}
</style>
<path class="st0" d="M4,4h8v8h-1.5V6h-3v6H4V4 M12.5,2.5h-9c-0.6,0-1,0.4-1,1v9c0,0.6,0.4,1,0.9,1c0,0,0,0,0.1,0h9
	c0.6,0,1-0.4,1.1-0.9c0,0,0-0.1,0-0.1v-9C13.6,2.9,13.1,2.4,12.5,2.5C12.5,2.4,12.5,2.4,12.5,2.5"/>
</svg>
