<?xml version="1.0" encoding="utf-8"?>
<!-- Generator: Adobe Illustrator 24.3.0, SVG Export Plug-In . SVG Version: 6.00 Build 0)  -->
<svg version="1.1" id="Layer_1" xmlns="http://www.w3.org/2000/svg" xmlns:xlink="http://www.w3.org/1999/xlink" x="0px" y="0px"
	 viewBox="0 0 16 16" style="enable-background:new 0 0 16 16;" xml:space="preserve">
<style type="text/css">
	.st0{fill-rule:evenodd;clip-rule:evenodd;fill:#7B7D85;}
</style>
<path class="st0" d="M2.1,10.2C2,10.1,2,9.8,2.1,9.6l5.5-7.3c0.3-0.4,1-0.4,1.3,0.1l5,8.9c0.2,0.3,0,0.7-0.5,0.8L5.7,14
	c-0.3,0.1-0.7,0-0.8-0.3C4.8,13.7,2.1,10.2,2.1,10.2z M8.2,4.4c0.1-0.2,0.4-0.2,0.5,0l3.5,6.5c0.1,0.1,0,0.3-0.2,0.3l-5.4,1.3
	c-0.2,0-0.4-0.1-0.3-0.3C6.3,12.3,8.2,4.4,8.2,4.4z"/>
</svg>
