<?xml version="1.0" encoding="utf-8"?>
<!-- Generator: Adobe Illustrator 24.3.0, SVG Export Plug-In . SVG Version: 6.00 Build 0)  -->
<svg version="1.1" id="Layer_1" xmlns="http://www.w3.org/2000/svg" xmlns:xlink="http://www.w3.org/1999/xlink" x="0px" y="0px"
	 viewBox="0 0 16 16" style="enable-background:new 0 0 16 16;" xml:space="preserve">
<style type="text/css">
	.st0{fill-rule:evenodd;clip-rule:evenodd;fill:#7B7D85;}
</style>
<path class="st0" d="M5,13.2c-0.1,0-0.2-0.1-0.3-0.5c-0.1-0.3-0.1-0.8,0-1.4c0-0.2,0.1-0.4,0.1-0.7c0.5,0.1,1,0.2,1.5,0.2
	c0.3,0.4,0.6,0.8,1,1.2c-0.2,0.2-0.3,0.3-0.5,0.4c-0.5,0.4-0.9,0.6-1.2,0.7C5.2,13.3,5.1,13.2,5,13.2z M8,12.8
	C6.7,14,5.4,14.5,4.5,14s-1.1-1.9-0.7-3.7C2.1,9.9,1,9,1,8s1.1-1.9,2.8-2.4C3.4,3.8,3.6,2.4,4.5,1.9S6.7,2,8,3.2
	C9.3,2,10.6,1.5,11.5,2s1.1,1.9,0.7,3.7C13.9,6.1,15,7,15,8s-1.1,1.9-2.8,2.4c0.4,1.8,0.2,3.2-0.7,3.7C10.6,14.6,9.3,14,8,12.8z
	 M11.2,5.3c0-0.2,0.1-0.4,0.1-0.7c0.1-0.6,0-1.1,0-1.4c-0.1-0.3-0.2-0.4-0.3-0.5c-0.1,0-0.2-0.1-0.5,0S9.8,3,9.3,3.4
	C9.1,3.6,8.9,3.7,8.7,3.9c0.3,0.4,0.7,0.8,1,1.2C10.2,5.1,10.7,5.2,11.2,5.3z M7.3,3.9C7.1,3.7,6.9,3.6,6.8,3.5
	C6.3,3.1,5.9,2.9,5.5,2.8C5.2,2.7,5,2.8,5,2.8S4.8,2.9,4.7,3.3c-0.1,0.3-0.1,0.8,0,1.4c0,0.2,0.1,0.4,0.1,0.7c0.5-0.1,1-0.2,1.5-0.2
	C6.6,4.7,7,4.3,7.3,3.9z M7.6,5C7.8,4.9,7.9,4.7,8,4.6C8.1,4.7,8.2,4.9,8.4,5C8.1,5,7.9,5,7.6,5z M5.6,6.2c-0.2,0-0.4,0.1-0.5,0.1
	c0.1,0.2,0.1,0.3,0.2,0.5C5.3,6.6,5.5,6.4,5.6,6.2z M5.7,8C6,7.3,6.4,6.7,6.8,6c0.8,0,1.6,0,2.3,0c0.4,0.6,0.8,1.3,1.1,2
	c-0.3,0.7-0.7,1.3-1.1,2c-0.7,0-1.5,0-2.2,0C6.4,9.3,6.1,8.7,5.7,8L5.7,8z M4.6,8C4.4,7.5,4.2,7,4.1,6.6c-0.2,0-0.4,0.1-0.7,0.2
	C2.9,7,2.5,7.3,2.3,7.5C2,7.8,2,7.9,2,8c0,0.1,0,0.2,0.3,0.5C2.5,8.7,2.9,9,3.4,9.2C3.6,9.3,3.8,9.4,4,9.4C4.2,9,4.4,8.5,4.6,8z
	 M5.1,9.7c0.1-0.2,0.1-0.3,0.2-0.5c0.1,0.2,0.2,0.4,0.4,0.6C5.4,9.8,5.2,9.7,5.1,9.7L5.1,9.7z M9.7,10.9c0.5-0.1,1-0.1,1.5-0.2
	c0.1,0.2,0.1,0.5,0.1,0.7c0.1,0.6,0,1.1,0,1.4c-0.1,0.3-0.2,0.4-0.3,0.5c-0.1,0-0.2,0.1-0.5,0S9.8,13,9.3,12.6
	c-0.2-0.1-0.4-0.3-0.5-0.4C9,11.7,9.4,11.3,9.7,10.9z M8.4,11c-0.1,0.1-0.2,0.3-0.4,0.4c-0.1-0.1-0.2-0.3-0.4-0.4
	C7.9,11,8.1,11,8.4,11z M10.4,9.8c0.1-0.2,0.2-0.4,0.4-0.6c0.1,0.2,0.1,0.3,0.2,0.5C10.8,9.7,10.6,9.8,10.4,9.8z M11.4,8
	c0.2,0.5,0.4,1,0.6,1.4c0.2-0.1,0.4-0.2,0.6-0.2c0.6-0.2,0.9-0.5,1.2-0.7C14,8.2,14,8.1,14,8s0-0.2-0.3-0.5
	c-0.2-0.2-0.6-0.5-1.2-0.7c-0.2-0.1-0.4-0.2-0.6-0.2C11.8,7,11.6,7.5,11.4,8z M10.8,6.8c0.1-0.2,0.1-0.3,0.2-0.5
	c-0.2,0-0.3-0.1-0.5-0.1C10.5,6.4,10.7,6.6,10.8,6.8L10.8,6.8z M8,9c0.6,0,1-0.4,1-1S8.6,7,8,7S7,7.4,7,8S7.4,9,8,9z"/>
</svg>
