<?xml version="1.0" encoding="utf-8"?>
<!-- Generator: Adobe Illustrator 24.3.0, SVG Export Plug-In . SVG Version: 6.00 Build 0)  -->
<svg version="1.1" id="Layer_1" xmlns="http://www.w3.org/2000/svg" xmlns:xlink="http://www.w3.org/1999/xlink" x="0px" y="0px"
	 viewBox="0 0 16 16" style="enable-background:new 0 0 16 16;" xml:space="preserve">
<style type="text/css">
	.st0{fill-rule:evenodd;clip-rule:evenodd;fill:#7B7D85;}
</style>
<path class="st0" d="M8,4C6.1,4,5,5,4.5,7C5.2,6,6,5.6,6.9,5.9c0.5,0.1,0.9,0.6,1.3,1C9,7.6,9.8,8.5,11.5,8.5c1.9,0,3-1,3.5-3
	c-0.7,1-1.5,1.4-2.4,1.1c-0.5-0.1-0.9-0.6-1.3-1C10.5,4.9,9.7,4,8,4z M4.5,8.5c-1.9,0-3,1-3.5,3c0.7-1,1.5-1.4,2.5-1.1
	c0.5,0.1,0.9,0.6,1.3,1C5.5,12.1,6.3,13,8,13c1.9,0,3-1,3.5-3c-0.7,1-1.5,1.4-2.4,1.1c-0.5-0.1-0.9-0.6-1.3-1C7,9.4,6.2,8.5,4.5,8.5
	z"/>
</svg>
