<?xml version="1.0" encoding="utf-8"?>
<!-- Generator: Adobe Illustrator 24.3.0, SVG Export Plug-In . SVG Version: 6.00 Build 0)  -->
<svg version="1.1" id="Layer_1" xmlns="http://www.w3.org/2000/svg" xmlns:xlink="http://www.w3.org/1999/xlink" x="0px" y="0px"
	 viewBox="0 0 16 16" style="enable-background:new 0 0 16 16;" xml:space="preserve">
<style type="text/css">
	.st0{fill:#7B7D85;}
	.st1{fill-rule:evenodd;clip-rule:evenodd;fill:#7B7D85;}
</style>
<path class="st0" d="M8.2,8.5c0,0.7,0.6,1.3,1.3,1.3s1.3-0.6,1.3-1.3s-0.6-1.3-1.3-1.3S8.2,7.8,8.2,8.5z"/>
<path class="st1" d="M2,4c0-0.6,0.4-1,1-1h10c0.6,0,1,0.4,1,1v8c0,0.6-0.4,1-1,1H3c-0.6,0-1-0.4-1-1V4z M13,8.9
	c0,0.1-0.1,0.2-0.3,0.2H12c-0.1,0-0.3,0.3-0.4,0.4c0,0.1,0,0.2,0.1,0.3l0.5,0.5c0.1,0.1,0.1,0.2,0,0.4l-0.6,0.6
	c-0.1,0.1-0.3,0.1-0.4,0l-0.5-0.5c-0.1-0.1-0.4,0-0.5,0c-0.1,0-0.2,0.2-0.2,0.3v0.7c0,0.1-0.1,0.3-0.2,0.3c0,0-0.2,0-0.4,0
	c-0.2,0-0.4,0-0.4,0c-0.1,0-0.2-0.1-0.2-0.3V11c0-0.1-0.3-0.3-0.4-0.4c-0.1,0-0.2,0-0.3,0.1l-0.5,0.5c-0.1,0.1-0.2,0.1-0.3,0
	l-0.6-0.6c-0.1-0.1-0.1-0.3,0-0.4l0.5-0.5c0.1-0.1,0-0.4,0-0.5c0-0.1-0.2-0.2-0.3-0.2H6.3C6.2,9.1,6,9,6,8.9c0,0,0-0.2,0-0.4
	c0-0.2,0-0.4,0-0.4C6,8,6.2,7.9,6.3,7.9H7c0.1,0,0.3-0.3,0.4-0.4c0-0.1,0-0.2-0.1-0.3L6.8,6.7c-0.1-0.1-0.1-0.2,0-0.3l0.6-0.6
	c0.1-0.1,0.3-0.1,0.3,0l0.5,0.5c0.1,0.1,0.4,0,0.5,0c0.1,0,0.2-0.2,0.2-0.3V5.3C8.9,5.2,9,5,9.1,5c0,0,0.2,0,0.4,0
	c0.2,0,0.4,0,0.4,0c0.1,0,0.2,0.1,0.2,0.3V6c0,0.1,0.3,0.3,0.4,0.4c0.1,0,0.2,0,0.3-0.1l0.5-0.5c0.1-0.1,0.2-0.1,0.4,0l0.6,0.6
	c0.1,0.1,0.1,0.3,0,0.3l-0.5,0.5c-0.1,0.1,0,0.4,0,0.5c0,0.1,0.2,0.2,0.3,0.2h0.7C12.8,7.9,13,8,13,8.1C12.9,8.4,12.9,8.6,13,8.9z"
	/>
</svg>
