<?xml version="1.0" encoding="utf-8"?>
<!-- Generator: Adobe Illustrator 24.3.0, SVG Export Plug-In . SVG Version: 6.00 Build 0)  -->
<svg version="1.1" id="Layer_1" xmlns="http://www.w3.org/2000/svg" xmlns:xlink="http://www.w3.org/1999/xlink" x="0px" y="0px"
	 viewBox="0 0 16 16" style="enable-background:new 0 0 16 16;" xml:space="preserve">
<style type="text/css">
	.st0{fill:#7B7D85;}
</style>
<path class="st0" d="M4,7.1V6.1h4.3v1.1H6.7v4.8H5.6V7.1H4 M10.8,6c0.2,0,0.4,0,0.6,0.1c0.2,0.1,0.4,0.1,0.6,0.2
	c0.2,0.1,0.4,0.2,0.6,0.3l-0.5,0.9c-0.2-0.1-0.5-0.3-0.7-0.4c-0.2-0.1-0.5-0.1-0.7-0.1c-0.3,0-0.5,0-0.8,0.2
	C9.9,7.3,9.8,7.5,9.8,7.7c0,0.1,0,0.3,0.1,0.4c0.1,0.1,0.2,0.2,0.4,0.2c0.2,0.1,0.4,0.1,0.6,0.1H11c0.3,0.1,0.6,0.1,0.9,0.3
	c0.3,0.1,0.5,0.3,0.6,0.5c0.2,0.3,0.3,0.6,0.2,0.9c0,0.4-0.1,0.7-0.3,1c-0.2,0.3-0.5,0.5-0.8,0.6c-0.4,0.1-0.8,0.2-1.2,0.2
	c-0.3,0-0.5,0-0.8-0.1c-0.3-0.1-0.5-0.1-0.8-0.2c-0.2-0.1-0.4-0.2-0.6-0.4l0.5-0.9c0.2,0.2,0.5,0.3,0.8,0.4c0.3,0.1,0.6,0.1,0.9,0.1
	c0.3,0,0.6,0,0.8-0.2c0.2-0.1,0.3-0.3,0.3-0.5c0-0.1,0-0.3-0.1-0.4c-0.1-0.1-0.2-0.2-0.4-0.2l-0.5-0.1h-0.1c-0.3,0-0.7-0.1-1-0.2
	C9.3,9.2,9.1,9,8.9,8.8c-0.2-0.3-0.3-0.6-0.3-1c0-0.4,0.1-0.7,0.3-1c0.2-0.3,0.4-0.5,0.7-0.6C10,6,10.4,6,10.8,6 M13.5,2.5h-11
	c-0.6,0-1,0.4-1,1v9c0,0.6,0.4,1,0.9,1c0,0,0,0,0.1,0h11c0.6,0,1-0.4,1-1c0,0,0,0,0-0.1v-9C14.5,2.9,14.1,2.4,13.5,2.5"/>
</svg>
