<?xml version="1.0" encoding="utf-8"?>
<!-- Generator: Adobe Illustrator 24.3.0, SVG Export Plug-In . SVG Version: 6.00 Build 0)  -->
<svg version="1.1" id="Layer_1" xmlns="http://www.w3.org/2000/svg" xmlns:xlink="http://www.w3.org/1999/xlink" x="0px" y="0px"
	 viewBox="0 0 16 16" style="enable-background:new 0 0 16 16;" xml:space="preserve">
<style type="text/css">
	.st0{fill-rule:evenodd;clip-rule:evenodd;fill:#7B7D85;}
</style>
<path class="st0" d="M3,4h10v8H3V4z M2,4c0-0.6,0.4-1,1-1h10c0.6,0,1,0.4,1,1v8c0,0.6-0.4,1-1,1H3c-0.6,0-1-0.4-1-1V4z M4.3,6.3v1
	h1.5v4.3h1V7.2h1.5v-1H4.3z M11.2,6.3c-0.2,0-0.4-0.1-0.6-0.1c-0.4,0-0.7,0-1.1,0.2C9.2,6.5,9,6.7,8.8,6.9C8.7,7.2,8.6,7.5,8.6,7.8
	c0,0.3,0.1,0.6,0.2,0.9C9,8.9,9.2,9.1,9.4,9.2c0.3,0.1,0.6,0.2,0.9,0.2h0.1l0.5,0.1c0.1,0,0.2,0.1,0.3,0.2c0.1,0.1,0.1,0.2,0.1,0.3
	c0,0.2-0.1,0.4-0.3,0.5c-0.2,0.1-0.5,0.2-0.8,0.2c-0.3,0-0.6,0-0.8-0.1c-0.3-0.1-0.5-0.2-0.7-0.4l-0.5,0.8c0.2,0.1,0.4,0.3,0.6,0.4
	c0.2,0.1,0.5,0.2,0.7,0.2c0.2,0,0.5,0.1,0.8,0.1c0.4,0,0.8-0.1,1.1-0.2c0.3-0.1,0.5-0.3,0.7-0.5c0.2-0.3,0.3-0.6,0.2-0.9
	c0-0.3-0.1-0.6-0.2-0.8c-0.1-0.2-0.3-0.4-0.6-0.4c-0.3-0.1-0.6-0.2-0.8-0.2h-0.1c-0.2,0-0.4-0.1-0.6-0.1c-0.1,0-0.2-0.1-0.3-0.2
	C9.6,8,9.6,7.8,9.6,7.7c0-0.2,0.1-0.3,0.3-0.4c0.2-0.1,0.5-0.2,0.7-0.2c0.2,0,0.4,0,0.7,0.1c0.2,0.1,0.4,0.2,0.6,0.3l0.4-0.8
	C12,6.5,11.6,6.4,11.2,6.3z"/>
</svg>
